# xmcd
#
# Track frame offsets: 
#        150
#        111788
#        157480
#
# Disc length: 2599 seconds
#
# Revision: 5
# Processed by: cddbd v1.5.2PL0 Copyright (c) Steve Scherf et al.
# Submitted via: ExactAudioCopyFreeDBPlugin 1.0
#
DISCID=240a2503
DTITLE=Itzhak Perlman - Carlo Maria Giulini, Chicago Symphony Orchestr
DTITLE=a - Brahms: Violin Concerto
DYEAR=1992
DGENRE=Concerto
TTITLE0=Violin Concerto in D major, op.77 - I. Allegro non troppo
TTITLE1=Violin Concerto in D major, op.77 - II. Adagio
TTITLE2=Violin Concerto in D major, op.77 - III. Allegro giocoso ma no
TTITLE2=n troppo vivace
EXTD=
EXTT0=
EXTT1=
EXTT2=
PLAYORDER=
